<svg width="37" height="38" viewBox="0 0 37 38" fill="none" xmlns="http://www.w3.org/2000/svg">
<g opacity="0.7" clip-path="url(#clip0)">
<path d="M20.6135 23.2705L22.6578 21.1709L25.2721 23.8558L23.2278 25.9554L20.6135 23.2705Z" fill="#EAFAFF"/>
<path d="M35.4296 32.1898C36.5591 33.3489 36.5591 35.2278 35.4296 36.3872C34.3008 37.5471 32.4713 37.5471 31.3427 36.3872L25.2724 30.1528L29.3593 25.9554L35.4296 32.1898Z" fill="#FF523D"/>
<path d="M26.294 22.8066L29.3593 25.9554L25.2724 30.1528L22.2064 27.0046C23.4818 25.6948 25.0959 24.037 26.294 22.8066Z" fill="#3A5576"/>
<path d="M21.6955 4.44036C26.4961 9.37069 26.4896 17.3585 21.6955 22.2819C16.8949 27.2125 9.11705 27.2052 4.32352 22.2819C-0.473675 17.355 -0.473675 9.36721 4.32352 4.44036C9.12043 -0.486488 16.8983 -0.486488 21.6955 4.44036Z" fill="#3A5576"/>
<path d="M19.652 6.53965C23.3141 10.3007 23.3141 16.4215 19.6514 20.1831C15.9874 23.9463 10.0449 23.9608 6.36671 20.1831C2.70488 16.4215 2.70488 10.3007 6.36671 6.53878C10.0348 2.77189 15.9797 2.76812 19.652 6.53965Z" fill="#EAFAFF"/>
<path d="M6.55754 13.4139C6.15867 13.4139 5.83488 13.7461 5.83488 14.1558C5.83488 14.5654 6.15867 14.898 6.55754 14.898C6.95641 14.898 7.2802 14.5654 7.2802 14.1558C7.2802 13.7461 6.95641 13.4139 6.55754 13.4139Z" fill="black"/>
<path d="M26.8053 22.2822C26.67 22.143 26.486 22.0648 26.2943 22.0648C26.287 22.0662 26.0092 22.0503 25.7834 22.2822L25.2727 22.8067L23.6123 21.1017C27.2764 15.8266 26.7192 8.55 22.2068 3.91597C17.1239 -1.30428 8.89636 -1.30515 3.81293 3.91597C-1.26994 9.13592 -1.27079 17.5861 3.81293 22.807C8.314 27.43 15.3963 28.0231 20.5461 24.2505L22.2065 25.9557L21.6958 26.4802C21.4138 26.7698 21.4136 27.2401 21.6958 27.53L30.8318 36.912C32.2435 38.3627 34.5286 38.3636 35.9406 36.9123C37.3532 35.4627 37.3538 33.1155 35.9406 31.6654L26.8053 22.2822ZM23.2284 24.9062L21.6812 23.3172C21.861 23.1517 22.0369 22.9818 22.2068 22.807C22.377 22.6324 22.5424 22.4518 22.7036 22.2674L24.2508 23.8565L23.2284 24.9062ZM4.83481 21.7575C0.316514 17.1173 0.315949 9.60617 4.83481 4.96547C9.35282 0.325056 16.6663 0.324476 21.1849 4.96547C25.693 9.59515 25.7159 17.1046 21.1849 21.7575C16.6028 26.464 9.29128 26.3347 4.83481 21.7575ZM26.2943 23.8565L28.3378 25.9555L25.2724 29.1037L23.2287 27.005L26.2943 23.8565ZM34.9188 35.8628C34.0719 36.7334 32.7014 36.7337 31.854 35.8628L26.2943 30.1532L29.3597 27.005L34.919 32.7152C35.7665 33.5846 35.7673 34.9922 34.9188 35.8628Z" fill="black"/>
<path d="M20.163 6.0149C16.2112 1.95635 9.80921 1.95403 5.85577 6.01432C1.91221 10.0653 1.91221 16.6569 5.85577 20.7082C9.80977 24.7688 16.2081 24.7691 20.1624 20.7082C24.1068 16.6569 24.1071 10.0656 20.163 6.0149ZM19.1405 19.6584C15.7516 23.1388 10.2674 23.1397 6.87765 19.6587C3.49754 16.1861 3.49754 10.5362 6.87765 7.06353C10.2648 3.58511 15.7528 3.58424 19.1411 7.0644C22.5217 10.5364 22.5215 16.1861 19.1405 19.6584Z" fill="black"/>
<path d="M13.0095 5.94069C11.0781 5.94069 9.26355 6.71245 7.9001 8.11362C7.1097 8.92539 6.5279 9.88443 6.17109 10.9647C6.04293 11.3526 6.24505 11.7741 6.62304 11.9057C7.00158 12.0376 7.41147 11.8289 7.53962 11.4416C7.82445 10.5791 8.28966 9.81253 8.92199 9.16283C10.0127 8.0423 11.4643 7.42506 13.0095 7.42506C13.4087 7.42506 13.7322 7.09282 13.7322 6.68288C13.7322 6.27293 13.4087 5.94069 13.0095 5.94069Z" fill="black"/>
</g>
<defs>
<clipPath id="clip0">
<rect width="37" height="38" fill="white"/>
</clipPath>
</defs>
</svg>
